<svg xmlns="http://www.w3.org/2000/svg" xmlns:xlink="http://www.w3.org/1999/xlink" width="500" zoomAndPan="magnify" viewBox="0 0 375 187.499995" height="250" preserveAspectRatio="xMidYMid meet" version="1.0"><defs><g/></defs><g fill="#000000" fill-opacity="1"><g transform="translate(127.650322, 99.908596)"><g><path d="M 1.75 -0.53125 L 3.84375 -1.046875 L 3.84375 -23.390625 L 1.75 -23.90625 L 1.75 -24.4375 L 11 -24.4375 C 14.945312 -24.4375 17.796875 -23.835938 19.546875 -22.640625 C 21.296875 -21.441406 22.171875 -19.769531 22.171875 -17.625 C 22.171875 -16.1875 21.785156 -15.019531 21.015625 -14.125 C 20.242188 -13.226562 19.253906 -12.554688 18.046875 -12.109375 C 16.765625 -11.617188 15.40625 -11.363281 13.96875 -11.34375 L 13.96875 -11.171875 C 14.820312 -11.117188 15.578125 -10.988281 16.234375 -10.78125 C 17.859375 -10.269531 18.960938 -9.351562 19.546875 -8.03125 L 22.6875 -1.046875 L 24.4375 -0.53125 L 24.4375 0 L 19.546875 0 C 17.640625 0 16.242188 -0.988281 15.359375 -2.96875 L 11.875 -10.828125 L 9.59375 -10.828125 L 9.59375 -1.046875 L 12.046875 -0.53125 L 12.046875 0 L 1.75 0 Z M 11 -11.6875 C 12.625 -11.6875 13.898438 -12.195312 14.828125 -13.21875 C 15.765625 -14.25 16.234375 -15.71875 16.234375 -17.625 C 16.234375 -19.53125 15.765625 -20.992188 14.828125 -22.015625 C 13.898438 -23.046875 12.625 -23.5625 11 -23.5625 L 9.59375 -23.5625 L 9.59375 -11.6875 Z M 11 -11.6875 "/></g></g></g><g fill="#000000" fill-opacity="1"><g transform="translate(152.07964, 99.908596)"><g><path d="M 9.78125 0.53125 C 8.46875 0.53125 7.296875 0.257812 6.265625 -0.28125 C 5.234375 -0.832031 4.425781 -1.550781 3.84375 -2.4375 C 3.257812 -3.320312 2.96875 -4.253906 2.96875 -5.234375 L 2.96875 -16.40625 L 0.875 -16.921875 L 0.875 -17.453125 L 5.40625 -17.453125 C 7.5 -17.453125 8.546875 -16.40625 8.546875 -14.3125 L 8.546875 -5.234375 C 8.546875 -3.765625 8.804688 -2.640625 9.328125 -1.859375 C 9.859375 -1.085938 10.472656 -0.703125 11.171875 -0.703125 C 12.035156 -0.703125 12.816406 -1.164062 13.515625 -2.09375 C 13.765625 -2.445312 14.03125 -2.910156 14.3125 -3.484375 L 14.3125 -16.40625 L 12.21875 -16.921875 L 12.21875 -17.453125 L 21.984375 -17.453125 L 21.984375 -16.921875 L 19.890625 -16.40625 L 19.890625 0.171875 L 19.546875 0.171875 C 17.847656 0.171875 16.554688 -0.289062 15.671875 -1.21875 C 15.273438 -1.632812 14.992188 -2.101562 14.828125 -2.625 C 14.503906 -2.039062 14.125 -1.515625 13.6875 -1.046875 C 12.632812 0.00390625 11.332031 0.53125 9.78125 0.53125 Z M 9.78125 0.53125 "/></g></g></g><g fill="#000000" fill-opacity="1"><g transform="translate(174.764016, 99.908596)"><g><path d="M 12.921875 0.53125 C 11.359375 0.53125 10.050781 0.00390625 9 -1.046875 C 8.5625 -1.515625 8.179688 -2.039062 7.859375 -2.625 C 7.691406 -2.101562 7.410156 -1.632812 7.015625 -1.21875 C 6.128906 -0.289062 4.835938 0.171875 3.140625 0.171875 L 2.796875 0.171875 L 2.796875 -23.390625 L 0.703125 -23.90625 L 0.703125 -24.4375 L 5.234375 -24.4375 C 7.328125 -24.4375 8.375 -23.390625 8.375 -21.296875 L 8.375 -16.578125 C 8.75 -16.878906 9.109375 -17.113281 9.453125 -17.28125 C 10.296875 -17.75 11.273438 -17.984375 12.390625 -17.984375 C 14.742188 -17.984375 16.613281 -17.179688 18 -15.578125 C 19.382812 -13.984375 20.078125 -11.695312 20.078125 -8.71875 C 20.078125 -6.75 19.757812 -5.070312 19.125 -3.6875 C 18.5 -2.300781 17.648438 -1.25 16.578125 -0.53125 C 15.503906 0.175781 14.285156 0.53125 12.921875 0.53125 Z M 11.515625 -0.703125 C 12.265625 -0.703125 12.890625 -1.285156 13.390625 -2.453125 C 13.890625 -3.628906 14.140625 -5.71875 14.140625 -8.71875 C 14.140625 -11.863281 13.863281 -14.015625 13.3125 -15.171875 C 12.769531 -16.335938 12 -16.921875 11 -16.921875 C 10.394531 -16.921875 9.773438 -16.691406 9.140625 -16.234375 C 8.953125 -16.085938 8.695312 -15.851562 8.375 -15.53125 L 8.375 -3.484375 C 8.582031 -2.953125 8.835938 -2.488281 9.140625 -2.09375 C 9.835938 -1.164062 10.628906 -0.703125 11.515625 -0.703125 Z M 11.515625 -0.703125 "/></g></g></g><g fill="#000000" fill-opacity="1"><g transform="translate(196.226925, 99.908596)"><g><path d="M 10.828125 0.53125 C 7.847656 0.53125 5.53125 -0.285156 3.875 -1.921875 C 2.21875 -3.566406 1.390625 -5.832031 1.390625 -8.71875 C 1.390625 -10.601562 1.75 -12.242188 2.46875 -13.640625 C 3.195312 -15.046875 4.207031 -16.117188 5.5 -16.859375 C 6.789062 -17.609375 8.273438 -17.984375 9.953125 -17.984375 C 11.628906 -17.984375 13.097656 -17.664062 14.359375 -17.03125 C 15.628906 -16.40625 16.609375 -15.5625 17.296875 -14.5 C 17.984375 -13.445312 18.328125 -12.28125 18.328125 -11 C 18.328125 -10.414062 18.269531 -9.914062 18.15625 -9.5 L 17.984375 -8.90625 C 16.972656 -8.695312 15.890625 -8.519531 14.734375 -8.375 C 12.285156 -8.03125 9.816406 -7.859375 7.328125 -7.859375 C 7.328125 -5.160156 7.695312 -3.234375 8.4375 -2.078125 C 9.1875 -0.921875 10.210938 -0.34375 11.515625 -0.34375 C 12.421875 -0.34375 13.265625 -0.554688 14.046875 -0.984375 C 14.828125 -1.421875 15.441406 -1.992188 15.890625 -2.703125 C 16.347656 -3.410156 16.578125 -4.140625 16.578125 -4.890625 L 17.453125 -4.890625 C 17.453125 -3.953125 17.171875 -3.066406 16.609375 -2.234375 C 16.054688 -1.398438 15.28125 -0.726562 14.28125 -0.21875 C 13.28125 0.28125 12.128906 0.53125 10.828125 0.53125 Z M 7.328125 -8.71875 C 8.816406 -8.71875 10.023438 -8.78125 10.953125 -8.90625 C 11.347656 -8.925781 11.769531 -8.984375 12.21875 -9.078125 C 12.238281 -9.191406 12.296875 -9.445312 12.390625 -9.84375 C 12.503906 -10.425781 12.5625 -11.039062 12.5625 -11.6875 C 12.5625 -13.625 12.304688 -15.039062 11.796875 -15.9375 C 11.285156 -16.832031 10.671875 -17.28125 9.953125 -17.28125 C 8.203125 -17.28125 7.328125 -14.425781 7.328125 -8.71875 Z M 7.328125 -8.71875 "/></g></g></g><g fill="#000000" fill-opacity="1"><g transform="translate(215.770389, 99.908596)"><g><path d="M 1.390625 -0.53125 L 3.484375 -1.046875 L 3.484375 -16.40625 L 1.390625 -16.921875 L 1.390625 -17.453125 L 4.53125 -17.453125 C 5.90625 -17.453125 6.988281 -17.007812 7.78125 -16.125 C 8.082031 -15.78125 8.335938 -15.347656 8.546875 -14.828125 C 8.878906 -15.441406 9.265625 -15.96875 9.703125 -16.40625 C 10.753906 -17.457031 12.054688 -17.984375 13.609375 -17.984375 C 14.910156 -17.984375 16.078125 -17.707031 17.109375 -17.15625 C 18.148438 -16.613281 18.960938 -15.898438 19.546875 -15.015625 C 20.128906 -14.128906 20.421875 -13.195312 20.421875 -12.21875 L 20.421875 -1.046875 L 22.515625 -0.53125 L 22.515625 0 L 17.984375 0 C 15.878906 0 14.828125 -1.046875 14.828125 -3.140625 L 14.828125 -12.21875 C 14.828125 -13.6875 14.566406 -14.804688 14.046875 -15.578125 C 13.523438 -16.359375 12.914062 -16.75 12.21875 -16.75 C 11.332031 -16.75 10.539062 -16.285156 9.84375 -15.359375 C 9.539062 -14.960938 9.285156 -14.5 9.078125 -13.96875 L 9.078125 -1.046875 L 11.171875 -0.53125 L 11.171875 0 L 1.390625 0 Z M 1.390625 -0.53125 "/></g></g></g><g fill="#000000" fill-opacity="1"><g transform="translate(238.97824, 99.908596)"><g><path d="M 4.1875 0.34375 C 3.488281 0.34375 2.878906 0.0820312 2.359375 -0.4375 C 1.835938 -0.957031 1.578125 -1.566406 1.578125 -2.265625 C 1.578125 -2.960938 1.835938 -3.570312 2.359375 -4.09375 C 2.878906 -4.625 3.488281 -4.890625 4.1875 -4.890625 C 4.882812 -4.890625 5.492188 -4.625 6.015625 -4.09375 C 6.546875 -3.570312 6.8125 -2.960938 6.8125 -2.265625 C 6.8125 -1.566406 6.546875 -0.957031 6.015625 -0.4375 C 5.492188 0.0820312 4.882812 0.34375 4.1875 0.34375 Z M 4.1875 0.34375 "/></g></g></g><g fill="#000000" fill-opacity="1"><g transform="translate(156.136541, 112.724394)"><g><path d="M 0.5 -0.15625 L 1.09375 -0.296875 L 1.09375 -6.671875 L 0.5 -6.828125 L 0.5 -6.984375 L 3.046875 -6.984375 C 4.234375 -6.984375 5.144531 -6.675781 5.78125 -6.0625 C 6.414062 -5.445312 6.734375 -4.585938 6.734375 -3.484375 C 6.734375 -2.378906 6.414062 -1.519531 5.78125 -0.90625 C 5.144531 -0.300781 4.234375 0 3.046875 0 L 0.5 0 Z M 3.046875 -0.25 C 3.660156 -0.25 4.132812 -0.5 4.46875 -1 C 4.8125 -1.5 4.984375 -2.328125 4.984375 -3.484375 C 4.984375 -4.640625 4.8125 -5.46875 4.46875 -5.96875 C 4.132812 -6.476562 3.660156 -6.734375 3.046875 -6.734375 L 2.734375 -6.734375 L 2.734375 -0.25 Z M 3.046875 -0.25 "/></g></g></g><g fill="#000000" fill-opacity="1"><g transform="translate(167.254062, 112.724394)"><g><path d="M 3.6875 0.15625 C 3.039062 0.15625 2.472656 0.015625 1.984375 -0.265625 C 1.492188 -0.554688 1.113281 -0.972656 0.84375 -1.515625 C 0.582031 -2.054688 0.453125 -2.710938 0.453125 -3.484375 C 0.453125 -4.253906 0.582031 -4.910156 0.84375 -5.453125 C 1.113281 -6.003906 1.492188 -6.421875 1.984375 -6.703125 C 2.472656 -6.984375 3.039062 -7.125 3.6875 -7.125 C 4.34375 -7.125 4.910156 -6.984375 5.390625 -6.703125 C 5.878906 -6.421875 6.253906 -6.003906 6.515625 -5.453125 C 6.785156 -4.910156 6.921875 -4.253906 6.921875 -3.484375 C 6.921875 -2.710938 6.785156 -2.054688 6.515625 -1.515625 C 6.253906 -0.972656 5.878906 -0.554688 5.390625 -0.265625 C 4.910156 0.015625 4.34375 0.15625 3.6875 0.15625 Z M 3.6875 -0.046875 C 3.945312 -0.046875 4.1875 -0.15625 4.40625 -0.375 C 4.632812 -0.59375 4.820312 -0.957031 4.96875 -1.46875 C 5.113281 -1.988281 5.1875 -2.660156 5.1875 -3.484375 C 5.1875 -4.316406 5.113281 -4.988281 4.96875 -5.5 C 4.820312 -6.007812 4.632812 -6.375 4.40625 -6.59375 C 4.1875 -6.8125 3.945312 -6.921875 3.6875 -6.921875 C 3.425781 -6.921875 3.179688 -6.8125 2.953125 -6.59375 C 2.734375 -6.375 2.550781 -6.007812 2.40625 -5.5 C 2.257812 -4.988281 2.1875 -4.316406 2.1875 -3.484375 C 2.1875 -2.660156 2.257812 -1.988281 2.40625 -1.46875 C 2.550781 -0.957031 2.734375 -0.59375 2.953125 -0.375 C 3.179688 -0.15625 3.425781 -0.046875 3.6875 -0.046875 Z M 3.6875 -0.046875 "/></g></g></g><g fill="#000000" fill-opacity="1"><g transform="translate(178.620823, 112.724394)"><g><path d="M 0.5 -0.15625 L 1.09375 -0.296875 L 1.09375 -6.671875 L 0.5 -6.828125 L 0.5 -6.984375 L 3.140625 -6.984375 C 4.265625 -6.984375 5.078125 -6.8125 5.578125 -6.46875 C 6.078125 -6.125 6.328125 -5.644531 6.328125 -5.03125 C 6.328125 -4.625 6.21875 -4.289062 6 -4.03125 C 5.78125 -3.78125 5.5 -3.585938 5.15625 -3.453125 C 4.789062 -3.316406 4.398438 -3.242188 3.984375 -3.234375 L 3.984375 -3.1875 C 4.234375 -3.175781 4.453125 -3.140625 4.640625 -3.078125 C 5.097656 -2.929688 5.410156 -2.671875 5.578125 -2.296875 L 6.484375 -0.296875 L 6.984375 -0.15625 L 6.984375 0 L 5.578125 0 C 5.035156 0 4.640625 -0.28125 4.390625 -0.84375 L 3.390625 -3.09375 L 2.734375 -3.09375 L 2.734375 -0.296875 L 3.4375 -0.15625 L 3.4375 0 L 0.5 0 Z M 3.140625 -3.34375 C 3.609375 -3.34375 3.972656 -3.488281 4.234375 -3.78125 C 4.503906 -4.070312 4.640625 -4.488281 4.640625 -5.03125 C 4.640625 -5.582031 4.503906 -6.003906 4.234375 -6.296875 C 3.972656 -6.585938 3.609375 -6.734375 3.140625 -6.734375 L 2.734375 -6.734375 L 2.734375 -3.34375 Z M 3.140625 -3.34375 "/></g></g></g><g fill="#000000" fill-opacity="1"><g transform="translate(189.588802, 112.724394)"><g><path d="M -0.203125 -0.15625 L 0.59375 -0.453125 L 3.34375 -7.078125 L 3.640625 -7.078125 L 6.484375 -0.296875 L 6.984375 -0.15625 L 6.984375 0 L 5.78125 0 C 5.4375 0 5.15625 -0.078125 4.9375 -0.234375 C 4.71875 -0.390625 4.554688 -0.59375 4.453125 -0.84375 L 3.9375 -2.046875 L 1.5625 -2.046875 L 0.890625 -0.453125 L 1.640625 -0.15625 L 1.640625 0 L -0.203125 0 Z M 1.65625 -2.296875 L 3.84375 -2.296875 L 2.734375 -4.921875 Z M 1.65625 -2.296875 "/></g></g></g><g fill="#000000" fill-opacity="1"><g transform="translate(200.357396, 112.724394)"><g><path d="M 0.5 -0.15625 L 1.09375 -0.296875 L 1.09375 -6.671875 L 0.5 -6.828125 L 0.5 -6.984375 L 3.046875 -6.984375 C 4.234375 -6.984375 5.144531 -6.675781 5.78125 -6.0625 C 6.414062 -5.445312 6.734375 -4.585938 6.734375 -3.484375 C 6.734375 -2.378906 6.414062 -1.519531 5.78125 -0.90625 C 5.144531 -0.300781 4.234375 0 3.046875 0 L 0.5 0 Z M 3.046875 -0.25 C 3.660156 -0.25 4.132812 -0.5 4.46875 -1 C 4.8125 -1.5 4.984375 -2.328125 4.984375 -3.484375 C 4.984375 -4.640625 4.8125 -5.46875 4.46875 -5.96875 C 4.132812 -6.476562 3.660156 -6.734375 3.046875 -6.734375 L 2.734375 -6.734375 L 2.734375 -0.25 Z M 3.046875 -0.25 "/></g></g></g><g fill="#000000" fill-opacity="1"><g transform="translate(211.474915, 112.724394)"><g><path d="M 3.6875 0.15625 C 3.039062 0.15625 2.472656 0.015625 1.984375 -0.265625 C 1.492188 -0.554688 1.113281 -0.972656 0.84375 -1.515625 C 0.582031 -2.054688 0.453125 -2.710938 0.453125 -3.484375 C 0.453125 -4.253906 0.582031 -4.910156 0.84375 -5.453125 C 1.113281 -6.003906 1.492188 -6.421875 1.984375 -6.703125 C 2.472656 -6.984375 3.039062 -7.125 3.6875 -7.125 C 4.34375 -7.125 4.910156 -6.984375 5.390625 -6.703125 C 5.878906 -6.421875 6.253906 -6.003906 6.515625 -5.453125 C 6.785156 -4.910156 6.921875 -4.253906 6.921875 -3.484375 C 6.921875 -2.710938 6.785156 -2.054688 6.515625 -1.515625 C 6.253906 -0.972656 5.878906 -0.554688 5.390625 -0.265625 C 4.910156 0.015625 4.34375 0.15625 3.6875 0.15625 Z M 3.6875 -0.046875 C 3.945312 -0.046875 4.1875 -0.15625 4.40625 -0.375 C 4.632812 -0.59375 4.820312 -0.957031 4.96875 -1.46875 C 5.113281 -1.988281 5.1875 -2.660156 5.1875 -3.484375 C 5.1875 -4.316406 5.113281 -4.988281 4.96875 -5.5 C 4.820312 -6.007812 4.632812 -6.375 4.40625 -6.59375 C 4.1875 -6.8125 3.945312 -6.921875 3.6875 -6.921875 C 3.425781 -6.921875 3.179688 -6.8125 2.953125 -6.59375 C 2.734375 -6.375 2.550781 -6.007812 2.40625 -5.5 C 2.257812 -4.988281 2.1875 -4.316406 2.1875 -3.484375 C 2.1875 -2.660156 2.257812 -1.988281 2.40625 -1.46875 C 2.550781 -0.957031 2.734375 -0.59375 2.953125 -0.375 C 3.179688 -0.15625 3.425781 -0.046875 3.6875 -0.046875 Z M 3.6875 -0.046875 "/></g></g></g></svg>