<svg xmlns="http://www.w3.org/2000/svg" xmlns:xlink="http://www.w3.org/1999/xlink" width="500" zoomAndPan="magnify" viewBox="0 0 375 187.499995" height="250" preserveAspectRatio="xMidYMid meet" version="1.0"><defs><g/></defs><g fill="#000000" fill-opacity="1"><g transform="translate(5.57889, 117.983327)"><g><path d="M 5.296875 -1.59375 L 11.671875 -3.1875 L 11.671875 -71.078125 L 5.296875 -72.671875 L 5.296875 -74.265625 L 33.421875 -74.265625 C 45.441406 -74.265625 54.101562 -72.441406 59.40625 -68.796875 C 64.71875 -65.160156 67.375 -60.085938 67.375 -53.578125 C 67.375 -49.191406 66.207031 -45.632812 63.875 -42.90625 C 61.539062 -40.1875 58.53125 -38.15625 54.84375 -36.8125 C 50.957031 -35.332031 46.820312 -34.554688 42.4375 -34.484375 L 42.4375 -33.953125 C 45.050781 -33.804688 47.347656 -33.414062 49.328125 -32.78125 C 54.285156 -31.226562 57.644531 -28.4375 59.40625 -24.40625 L 68.953125 -3.1875 L 74.265625 -1.59375 L 74.265625 0 L 59.40625 0 C 53.613281 0 49.375 -3.003906 46.6875 -9.015625 L 36.078125 -32.890625 L 29.171875 -32.890625 L 29.171875 -3.1875 L 36.609375 -1.59375 L 36.609375 0 L 5.296875 0 Z M 33.421875 -35.546875 C 38.367188 -35.546875 42.253906 -37.097656 45.078125 -40.203125 C 47.910156 -43.316406 49.328125 -47.773438 49.328125 -53.578125 C 49.328125 -59.378906 47.910156 -63.832031 45.078125 -66.9375 C 42.253906 -70.050781 38.367188 -71.609375 33.421875 -71.609375 L 29.171875 -71.609375 L 29.171875 -35.546875 Z M 33.421875 -35.546875 "/></g></g></g><g fill="#000000" fill-opacity="1"><g transform="translate(79.835077, 117.983327)"><g><path d="M 29.703125 1.59375 C 25.742188 1.59375 22.191406 0.765625 19.046875 -0.890625 C 15.898438 -2.554688 13.441406 -4.734375 11.671875 -7.421875 C 9.898438 -10.109375 9.015625 -12.9375 9.015625 -15.90625 L 9.015625 -49.859375 L 2.65625 -51.453125 L 2.65625 -53.046875 L 16.4375 -53.046875 C 22.8125 -53.046875 26 -49.863281 26 -43.5 L 26 -15.90625 C 26 -11.457031 26.789062 -8.046875 28.375 -5.671875 C 29.96875 -3.304688 31.828125 -2.125 33.953125 -2.125 C 36.566406 -2.125 38.9375 -3.535156 41.0625 -6.359375 C 41.832031 -7.421875 42.644531 -8.835938 43.5 -10.609375 L 43.5 -49.859375 L 37.125 -51.453125 L 37.125 -53.046875 L 66.84375 -53.046875 L 66.84375 -51.453125 L 60.46875 -49.859375 L 60.46875 0.53125 L 59.40625 0.53125 C 54.25 0.53125 50.328125 -0.882812 47.640625 -3.71875 C 46.429688 -4.988281 45.582031 -6.398438 45.09375 -7.953125 C 44.101562 -6.179688 42.9375 -4.59375 41.59375 -3.1875 C 38.40625 0 34.441406 1.59375 29.703125 1.59375 Z M 29.703125 1.59375 "/></g></g></g><g fill="#000000" fill-opacity="1"><g transform="translate(148.787279, 117.983327)"><g><path d="M 39.25 1.59375 C 34.507812 1.59375 30.550781 0 27.375 -3.1875 C 26.03125 -4.59375 24.863281 -6.179688 23.875 -7.953125 C 23.375 -6.398438 22.523438 -4.988281 21.328125 -3.71875 C 18.640625 -0.882812 14.710938 0.53125 9.546875 0.53125 L 8.484375 0.53125 L 8.484375 -71.078125 L 2.125 -72.671875 L 2.125 -74.265625 L 15.90625 -74.265625 C 22.28125 -74.265625 25.46875 -71.082031 25.46875 -64.71875 L 25.46875 -50.390625 C 26.59375 -51.316406 27.6875 -52.023438 28.75 -52.515625 C 31.300781 -53.929688 34.269531 -54.640625 37.65625 -54.640625 C 44.800781 -54.640625 50.476562 -52.21875 54.6875 -47.375 C 58.894531 -42.53125 61 -35.578125 61 -26.515625 C 61 -20.503906 60.046875 -15.394531 58.140625 -11.1875 C 56.234375 -6.976562 53.648438 -3.796875 50.390625 -1.640625 C 47.140625 0.515625 43.425781 1.59375 39.25 1.59375 Z M 35.015625 -2.125 C 37.273438 -2.125 39.164062 -3.910156 40.6875 -7.484375 C 42.207031 -11.054688 42.96875 -17.398438 42.96875 -26.515625 C 42.96875 -36.066406 42.132812 -42.609375 40.46875 -46.140625 C 38.8125 -49.679688 36.460938 -51.453125 33.421875 -51.453125 C 31.578125 -51.453125 29.703125 -50.742188 27.796875 -49.328125 C 27.234375 -48.910156 26.457031 -48.207031 25.46875 -47.21875 L 25.46875 -10.609375 C 26.101562 -8.984375 26.878906 -7.566406 27.796875 -6.359375 C 29.921875 -3.535156 32.328125 -2.125 35.015625 -2.125 Z M 35.015625 -2.125 "/></g></g></g><g fill="#000000" fill-opacity="1"><g transform="translate(214.026669, 117.983327)"><g><path d="M 32.890625 1.59375 C 23.835938 1.59375 16.800781 -0.898438 11.78125 -5.890625 C 6.757812 -10.878906 4.25 -17.753906 4.25 -26.515625 C 4.25 -32.242188 5.34375 -37.226562 7.53125 -41.46875 C 9.726562 -45.71875 12.785156 -48.972656 16.703125 -51.234375 C 20.628906 -53.503906 25.140625 -54.640625 30.234375 -54.640625 C 35.328125 -54.640625 39.800781 -53.679688 43.65625 -51.765625 C 47.507812 -49.859375 50.476562 -47.296875 52.5625 -44.078125 C 54.65625 -40.859375 55.703125 -37.304688 55.703125 -33.421875 C 55.703125 -31.648438 55.523438 -30.128906 55.171875 -28.859375 L 54.640625 -27.046875 C 51.597656 -26.410156 48.304688 -25.882812 44.765625 -25.46875 C 37.335938 -24.40625 29.84375 -23.875 22.28125 -23.875 C 22.28125 -15.664062 23.410156 -9.8125 25.671875 -6.3125 C 27.929688 -2.8125 31.046875 -1.0625 35.015625 -1.0625 C 37.773438 -1.0625 40.335938 -1.710938 42.703125 -3.015625 C 45.066406 -4.328125 46.9375 -6.0625 48.3125 -8.21875 C 49.695312 -10.375 50.390625 -12.585938 50.390625 -14.859375 L 53.046875 -14.859375 C 53.046875 -12.023438 52.195312 -9.332031 50.5 -6.78125 C 48.800781 -4.238281 46.429688 -2.207031 43.390625 -0.6875 C 40.347656 0.832031 36.847656 1.59375 32.890625 1.59375 Z M 22.28125 -26.515625 C 26.800781 -26.515625 30.476562 -26.691406 33.3125 -27.046875 C 34.507812 -27.117188 35.78125 -27.296875 37.125 -27.578125 C 37.195312 -27.929688 37.375 -28.710938 37.65625 -29.921875 C 38.007812 -31.691406 38.1875 -33.566406 38.1875 -35.546875 C 38.1875 -41.410156 37.410156 -45.703125 35.859375 -48.421875 C 34.304688 -51.148438 32.429688 -52.515625 30.234375 -52.515625 C 24.929688 -52.515625 22.28125 -43.847656 22.28125 -26.515625 Z M 22.28125 -26.515625 "/></g></g></g><g fill="#000000" fill-opacity="1"><g transform="translate(273.431647, 117.983327)"><g><path d="M 4.25 -1.59375 L 10.609375 -3.1875 L 10.609375 -49.859375 L 4.25 -51.453125 L 4.25 -53.046875 L 13.796875 -53.046875 C 17.960938 -53.046875 21.25 -51.703125 23.65625 -49.015625 C 24.570312 -47.953125 25.351562 -46.644531 26 -45.09375 C 26.988281 -46.925781 28.15625 -48.515625 29.5 -49.859375 C 32.675781 -53.046875 36.632812 -54.640625 41.375 -54.640625 C 45.332031 -54.640625 48.882812 -53.804688 52.03125 -52.140625 C 55.1875 -50.484375 57.644531 -48.3125 59.40625 -45.625 C 61.175781 -42.9375 62.0625 -40.101562 62.0625 -37.125 L 62.0625 -3.1875 L 68.4375 -1.59375 L 68.4375 0 L 54.640625 0 C 48.273438 0 45.09375 -3.179688 45.09375 -9.546875 L 45.09375 -37.125 C 45.09375 -41.582031 44.296875 -44.992188 42.703125 -47.359375 C 41.109375 -49.734375 39.25 -50.921875 37.125 -50.921875 C 34.4375 -50.921875 32.035156 -49.507812 29.921875 -46.6875 C 29.003906 -45.476562 28.222656 -44.0625 27.578125 -42.4375 L 27.578125 -3.1875 L 33.953125 -1.59375 L 33.953125 0 L 4.25 0 Z M 4.25 -1.59375 "/></g></g></g><g fill="#000000" fill-opacity="1"><g transform="translate(343.975023, 117.983327)"><g><path d="M 12.734375 1.0625 C 10.609375 1.0625 8.75 0.265625 7.15625 -1.328125 C 5.570312 -2.921875 4.78125 -4.773438 4.78125 -6.890625 C 4.78125 -9.015625 5.570312 -10.875 7.15625 -12.46875 C 8.75 -14.0625 10.609375 -14.859375 12.734375 -14.859375 C 14.847656 -14.859375 16.703125 -14.0625 18.296875 -12.46875 C 19.890625 -10.875 20.6875 -9.015625 20.6875 -6.890625 C 20.6875 -4.773438 19.890625 -2.921875 18.296875 -1.328125 C 16.703125 0.265625 14.847656 1.0625 12.734375 1.0625 Z M 12.734375 1.0625 "/></g></g></g><g fill="#000000" fill-opacity="1"><g transform="translate(92.166554, 156.938677)"><g><path d="M 1.515625 -0.453125 L 3.328125 -0.90625 L 3.328125 -20.3125 L 1.515625 -20.765625 L 1.515625 -21.21875 L 9.25 -21.21875 C 12.863281 -21.21875 15.632812 -20.285156 17.5625 -18.421875 C 19.5 -16.566406 20.46875 -13.960938 20.46875 -10.609375 C 20.46875 -7.253906 19.5 -4.644531 17.5625 -2.78125 C 15.632812 -0.925781 12.863281 0 9.25 0 L 1.515625 0 Z M 9.25 -0.765625 C 11.125 -0.765625 12.578125 -1.523438 13.609375 -3.046875 C 14.640625 -4.566406 15.15625 -7.085938 15.15625 -10.609375 C 15.15625 -14.128906 14.640625 -16.648438 13.609375 -18.171875 C 12.578125 -19.703125 11.125 -20.46875 9.25 -20.46875 L 8.34375 -20.46875 L 8.34375 -0.765625 Z M 9.25 -0.765625 "/></g></g></g><g fill="#000000" fill-opacity="1"><g transform="translate(125.95975, 156.938677)"><g><path d="M 11.21875 0.453125 C 9.238281 0.453125 7.503906 0.0234375 6.015625 -0.828125 C 4.535156 -1.691406 3.390625 -2.953125 2.578125 -4.609375 C 1.765625 -6.265625 1.359375 -8.265625 1.359375 -10.609375 C 1.359375 -12.953125 1.765625 -14.953125 2.578125 -16.609375 C 3.390625 -18.265625 4.535156 -19.519531 6.015625 -20.375 C 7.503906 -21.238281 9.238281 -21.671875 11.21875 -21.671875 C 13.195312 -21.671875 14.925781 -21.238281 16.40625 -20.375 C 17.894531 -19.519531 19.039062 -18.265625 19.84375 -16.609375 C 20.65625 -14.953125 21.0625 -12.953125 21.0625 -10.609375 C 21.0625 -8.265625 20.65625 -6.265625 19.84375 -4.609375 C 19.039062 -2.953125 17.894531 -1.691406 16.40625 -0.828125 C 14.925781 0.0234375 13.195312 0.453125 11.21875 0.453125 Z M 11.21875 -0.15625 C 12 -0.15625 12.726562 -0.488281 13.40625 -1.15625 C 14.082031 -1.820312 14.644531 -2.929688 15.09375 -4.484375 C 15.539062 -6.046875 15.765625 -8.085938 15.765625 -10.609375 C 15.765625 -13.140625 15.539062 -15.179688 15.09375 -16.734375 C 14.644531 -18.285156 14.082031 -19.394531 13.40625 -20.0625 C 12.726562 -20.726562 12 -21.0625 11.21875 -21.0625 C 10.425781 -21.0625 9.691406 -20.726562 9.015625 -20.0625 C 8.335938 -19.394531 7.773438 -18.285156 7.328125 -16.734375 C 6.890625 -15.179688 6.671875 -13.140625 6.671875 -10.609375 C 6.671875 -8.085938 6.890625 -6.046875 7.328125 -4.484375 C 7.773438 -2.929688 8.335938 -1.820312 9.015625 -1.15625 C 9.691406 -0.488281 10.425781 -0.15625 11.21875 -0.15625 Z M 11.21875 -0.15625 "/></g></g></g><g fill="#000000" fill-opacity="1"><g transform="translate(160.510544, 156.938677)"><g><path d="M 1.515625 -0.453125 L 3.328125 -0.90625 L 3.328125 -20.3125 L 1.515625 -20.765625 L 1.515625 -21.21875 L 9.546875 -21.21875 C 12.984375 -21.21875 15.457031 -20.695312 16.96875 -19.65625 C 18.488281 -18.613281 19.25 -17.164062 19.25 -15.3125 C 19.25 -14.050781 18.914062 -13.03125 18.25 -12.25 C 17.582031 -11.476562 16.722656 -10.898438 15.671875 -10.515625 C 14.554688 -10.085938 13.375 -9.867188 12.125 -9.859375 L 12.125 -9.703125 C 12.875 -9.660156 13.53125 -9.546875 14.09375 -9.359375 C 15.507812 -8.921875 16.46875 -8.125 16.96875 -6.96875 L 19.703125 -0.90625 L 21.21875 -0.453125 L 21.21875 0 L 16.96875 0 C 15.3125 0 14.101562 -0.859375 13.34375 -2.578125 L 10.3125 -9.390625 L 8.34375 -9.390625 L 8.34375 -0.90625 L 10.453125 -0.453125 L 10.453125 0 L 1.515625 0 Z M 9.546875 -10.15625 C 10.960938 -10.15625 12.070312 -10.597656 12.875 -11.484375 C 13.6875 -12.378906 14.09375 -13.65625 14.09375 -15.3125 C 14.09375 -16.96875 13.6875 -18.238281 12.875 -19.125 C 12.070312 -20.019531 10.960938 -20.46875 9.546875 -20.46875 L 8.34375 -20.46875 L 8.34375 -10.15625 Z M 9.546875 -10.15625 "/></g></g></g><g fill="#000000" fill-opacity="1"><g transform="translate(193.849185, 156.938677)"><g><path d="M -0.609375 -0.453125 L 1.8125 -1.359375 L 10.15625 -21.515625 L 11.0625 -21.515625 L 19.703125 -0.90625 L 21.21875 -0.453125 L 21.21875 0 L 17.578125 0 C 16.523438 0 15.664062 -0.234375 15 -0.703125 C 14.332031 -1.179688 13.835938 -1.804688 13.515625 -2.578125 L 11.96875 -6.21875 L 4.734375 -6.21875 L 2.734375 -1.359375 L 5 -0.453125 L 5 0 L -0.609375 0 Z M 5.03125 -6.96875 L 11.671875 -6.96875 L 8.34375 -14.9375 Z M 5.03125 -6.96875 "/></g></g></g><g fill="#000000" fill-opacity="1"><g transform="translate(226.581772, 156.938677)"><g><path d="M 1.515625 -0.453125 L 3.328125 -0.90625 L 3.328125 -20.3125 L 1.515625 -20.765625 L 1.515625 -21.21875 L 9.25 -21.21875 C 12.863281 -21.21875 15.632812 -20.285156 17.5625 -18.421875 C 19.5 -16.566406 20.46875 -13.960938 20.46875 -10.609375 C 20.46875 -7.253906 19.5 -4.644531 17.5625 -2.78125 C 15.632812 -0.925781 12.863281 0 9.25 0 L 1.515625 0 Z M 9.25 -0.765625 C 11.125 -0.765625 12.578125 -1.523438 13.609375 -3.046875 C 14.640625 -4.566406 15.15625 -7.085938 15.15625 -10.609375 C 15.15625 -14.128906 14.640625 -16.648438 13.609375 -18.171875 C 12.578125 -19.703125 11.125 -20.46875 9.25 -20.46875 L 8.34375 -20.46875 L 8.34375 -0.765625 Z M 9.25 -0.765625 "/></g></g></g><g fill="#000000" fill-opacity="1"><g transform="translate(260.374961, 156.938677)"><g><path d="M 11.21875 0.453125 C 9.238281 0.453125 7.503906 0.0234375 6.015625 -0.828125 C 4.535156 -1.691406 3.390625 -2.953125 2.578125 -4.609375 C 1.765625 -6.265625 1.359375 -8.265625 1.359375 -10.609375 C 1.359375 -12.953125 1.765625 -14.953125 2.578125 -16.609375 C 3.390625 -18.265625 4.535156 -19.519531 6.015625 -20.375 C 7.503906 -21.238281 9.238281 -21.671875 11.21875 -21.671875 C 13.195312 -21.671875 14.925781 -21.238281 16.40625 -20.375 C 17.894531 -19.519531 19.039062 -18.265625 19.84375 -16.609375 C 20.65625 -14.953125 21.0625 -12.953125 21.0625 -10.609375 C 21.0625 -8.265625 20.65625 -6.265625 19.84375 -4.609375 C 19.039062 -2.953125 17.894531 -1.691406 16.40625 -0.828125 C 14.925781 0.0234375 13.195312 0.453125 11.21875 0.453125 Z M 11.21875 -0.15625 C 12 -0.15625 12.726562 -0.488281 13.40625 -1.15625 C 14.082031 -1.820312 14.644531 -2.929688 15.09375 -4.484375 C 15.539062 -6.046875 15.765625 -8.085938 15.765625 -10.609375 C 15.765625 -13.140625 15.539062 -15.179688 15.09375 -16.734375 C 14.644531 -18.285156 14.082031 -19.394531 13.40625 -20.0625 C 12.726562 -20.726562 12 -21.0625 11.21875 -21.0625 C 10.425781 -21.0625 9.691406 -20.726562 9.015625 -20.0625 C 8.335938 -19.394531 7.773438 -18.285156 7.328125 -16.734375 C 6.890625 -15.179688 6.671875 -13.140625 6.671875 -10.609375 C 6.671875 -8.085938 6.890625 -6.046875 7.328125 -4.484375 C 7.773438 -2.929688 8.335938 -1.820312 9.015625 -1.15625 C 9.691406 -0.488281 10.425781 -0.15625 11.21875 -0.15625 Z M 11.21875 -0.15625 "/></g></g></g></svg>